<svg width="30" height="31" viewBox="0 0 30 31" fill="none" xmlns="http://www.w3.org/2000/svg">
<rect y="0.341309" width="29.7414" height="29.7414" rx="14.8707" fill="#DDFFFF"/>
<g clip-path="url(#clip0_1_1994)">
<path d="M8.62491 6.74028C9.41454 6.41015 10.5468 6.05415 11.6478 5.94351C12.8345 5.82395 13.841 5.99972 14.4245 6.61448V15.3103C13.5902 14.8374 12.5329 14.7722 11.5577 14.8704C10.5049 14.9775 9.44309 15.2817 8.62491 15.594V6.74028ZM15.3167 6.61448C15.9002 5.99972 16.9067 5.82395 18.0934 5.94351C19.1944 6.05415 20.3267 6.41015 21.1163 6.74028V15.594C20.2972 15.2817 19.2363 14.9766 18.1835 14.8713C17.2074 14.7722 16.151 14.8365 15.3167 15.3103V6.61448ZM14.8706 5.80789C13.9917 5.05216 12.7176 4.93974 11.5577 5.05573C10.2069 5.19224 8.84351 5.65532 7.99409 6.04166C7.91615 6.0771 7.85006 6.13423 7.80371 6.20622C7.75735 6.2782 7.73269 6.36201 7.73267 6.44763V16.2623C7.73269 16.3369 7.75144 16.4104 7.7872 16.4759C7.82296 16.5414 7.87459 16.5969 7.93736 16.6373C8.00012 16.6777 8.07203 16.7017 8.14647 16.7071C8.22092 16.7125 8.29553 16.6992 8.36348 16.6683C9.15044 16.3114 10.4183 15.8822 11.6469 15.7582C12.9041 15.6315 13.9578 15.8358 14.5226 16.5407C14.5644 16.5928 14.6174 16.6348 14.6776 16.6637C14.7378 16.6926 14.8038 16.7076 14.8706 16.7076C14.9374 16.7076 15.0033 16.6926 15.0636 16.6637C15.1238 16.6348 15.1768 16.5928 15.2186 16.5407C15.7834 15.8358 16.8371 15.6315 18.0934 15.7582C19.3229 15.8822 20.5916 16.3114 21.3777 16.6683C21.4457 16.6992 21.5203 16.7125 21.5947 16.7071C21.6692 16.7017 21.7411 16.6777 21.8038 16.6373C21.8666 16.5969 21.9182 16.5414 21.954 16.4759C21.9898 16.4104 22.0085 16.3369 22.0085 16.2623V6.44763C22.0085 6.36201 21.9838 6.2782 21.9375 6.20622C21.8911 6.13423 21.825 6.0771 21.7471 6.04166C20.8977 5.65532 19.5343 5.19224 18.1835 5.05573C17.0236 4.93885 15.7495 5.05216 14.8706 5.80789Z" fill="#09B451"/>
</g>
<defs>
<clipPath id="clip0_1_1994">
<rect width="14.2759" height="14.2759" fill="white" transform="translate(7.73267 4.21704)"/>
</clipPath>
</defs>
</svg>
