<svg width="30" height="30" viewBox="0 0 30 30" fill="none" xmlns="http://www.w3.org/2000/svg">
<rect y="0.116943" width="29.7414" height="29.7414" rx="14.8707" fill="#DDFFFF"/>
<path d="M20.9071 9.73676H17.3381C17.2768 9.73676 17.2266 9.78695 17.2266 9.84829V10.5175C17.2266 10.5788 17.2768 10.629 17.3381 10.629H20.9071C20.9684 10.629 21.0186 10.5788 21.0186 10.5175V9.84829C21.0186 9.78695 20.9684 9.73676 20.9071 9.73676ZM19.039 11.6328H17.3381C17.2768 11.6328 17.2266 11.683 17.2266 11.7443V12.4135C17.2266 12.4748 17.2768 12.525 17.3381 12.525H19.039C19.1003 12.525 19.1505 12.4748 19.1505 12.4135V11.7443C19.1505 11.683 19.1003 11.6328 19.039 11.6328ZM14.3868 8.48901H13.7831C13.6967 8.48901 13.627 8.55872 13.627 8.64516V12.1026C13.627 12.1528 13.6507 12.1988 13.6911 12.2281L15.7669 13.7421C15.8366 13.7923 15.9342 13.7783 15.9844 13.7086L16.3427 13.2193V13.2179C16.3929 13.1482 16.3776 13.0506 16.3079 13.0004L14.5415 11.7234V8.64516C14.5429 8.55872 14.4718 8.48901 14.3868 8.48901Z" fill="#09B451"/>
<path d="M18.9525 13.3881H18.1467C18.0686 13.3881 17.9947 13.4285 17.9529 13.4954C17.7759 13.7756 17.5695 14.0349 17.3325 14.2719C16.924 14.6804 16.4486 15.0011 15.9203 15.2241C15.3724 15.4556 14.791 15.5727 14.1916 15.5727C13.5907 15.5727 13.0093 15.4556 12.4628 15.2241C11.9345 15.0011 11.4591 14.6804 11.0506 14.2719C10.6421 13.8635 10.3215 13.3881 10.0984 12.8597C9.86697 12.3132 9.74987 11.7318 9.74987 11.131C9.74987 10.5301 9.86697 9.95015 10.0984 9.40226C10.3215 8.87388 10.6421 8.39849 11.0506 7.99001C11.4591 7.58153 11.9345 7.26088 12.4628 7.03782C13.0093 6.80639 13.5921 6.68929 14.1916 6.68929C14.7924 6.68929 15.3738 6.80639 15.9203 7.03782C16.4486 7.26088 16.924 7.58153 17.3325 7.99001C17.5695 8.22701 17.7759 8.48632 17.9529 8.76654C17.9947 8.83346 18.0686 8.87388 18.1467 8.87388H18.9525C19.0487 8.87388 19.11 8.77351 19.0668 8.68847C18.1578 6.88028 16.3148 5.70503 14.2571 5.68133C11.2444 5.64369 8.74191 8.1099 8.73634 11.1198C8.73076 14.1353 11.1747 16.582 14.1902 16.582C16.2744 16.582 18.1481 15.4026 19.0668 13.5735C19.11 13.4884 19.0473 13.3881 18.9525 13.3881Z" fill="#09B451"/>
</svg>
