<svg width="129" height="146" viewBox="0 0 129 146" fill="none" xmlns="http://www.w3.org/2000/svg">
<path d="M0 6.88679C0 3.08332 3.08332 0 6.88679 0H122.113C125.917 0 129 3.08332 129 6.88679V128.783C129 138.292 121.292 146 111.783 146H6.8868C3.08333 146 0 142.917 0 139.113V6.88679Z" fill="white"/>
<path d="M52.7951 72.248V84.008C52.7951 85.64 52.3231 86.912 51.3791 87.824C50.4351 88.72 49.1711 89.168 47.5871 89.168C45.9871 89.168 44.6911 88.704 43.6991 87.776C42.7231 86.848 42.2351 85.552 42.2351 83.888H45.5951C45.6111 84.608 45.7791 85.168 46.0991 85.568C46.4351 85.968 46.9151 86.168 47.5391 86.168C48.1471 86.168 48.6111 85.976 48.9311 85.592C49.2511 85.208 49.4111 84.68 49.4111 84.008V72.248H52.7951ZM62.6186 89.216C61.3386 89.216 60.1866 88.936 59.1626 88.376C58.1386 87.8 57.3306 86.992 56.7386 85.952C56.1626 84.912 55.8746 83.712 55.8746 82.352C55.8746 80.992 56.1706 79.792 56.7626 78.752C57.3706 77.712 58.1946 76.912 59.2346 76.352C60.2746 75.776 61.4346 75.488 62.7146 75.488C63.9946 75.488 65.1546 75.776 66.1946 76.352C67.2346 76.912 68.0506 77.712 68.6426 78.752C69.2506 79.792 69.5546 80.992 69.5546 82.352C69.5546 83.712 69.2426 84.912 68.6186 85.952C68.0106 86.992 67.1786 87.8 66.1226 88.376C65.0826 88.936 63.9146 89.216 62.6186 89.216ZM62.6186 86.288C63.2266 86.288 63.7946 86.144 64.3226 85.856C64.8666 85.552 65.2986 85.104 65.6186 84.512C65.9386 83.92 66.0986 83.2 66.0986 82.352C66.0986 81.088 65.7626 80.12 65.0906 79.448C64.4346 78.76 63.6266 78.416 62.6666 78.416C61.7066 78.416 60.8986 78.76 60.2426 79.448C59.6026 80.12 59.2826 81.088 59.2826 82.352C59.2826 83.616 59.5946 84.592 60.2186 85.28C60.8586 85.952 61.6586 86.288 62.6186 86.288ZM75.3793 77.648C75.8113 77.008 76.4033 76.488 77.1553 76.088C77.9233 75.688 78.7953 75.488 79.7713 75.488C80.9073 75.488 81.9313 75.768 82.8433 76.328C83.7713 76.888 84.4993 77.688 85.0273 78.728C85.5713 79.752 85.8433 80.944 85.8433 82.304C85.8433 83.664 85.5713 84.872 85.0273 85.928C84.4993 86.968 83.7713 87.776 82.8433 88.352C81.9313 88.928 80.9073 89.216 79.7713 89.216C78.7793 89.216 77.9073 89.024 77.1553 88.64C76.4193 88.24 75.8273 87.728 75.3793 87.104V89H72.0193V71.24H75.3793V77.648ZM82.4113 82.304C82.4113 81.504 82.2433 80.816 81.9073 80.24C81.5873 79.648 81.1553 79.2 80.6113 78.896C80.0833 78.592 79.5073 78.44 78.8833 78.44C78.2753 78.44 77.6993 78.6 77.1553 78.92C76.6273 79.224 76.1953 79.672 75.8593 80.264C75.5393 80.856 75.3793 81.552 75.3793 82.352C75.3793 83.152 75.5393 83.848 75.8593 84.44C76.1953 85.032 76.6273 85.488 77.1553 85.808C77.6993 86.112 78.2753 86.264 78.8833 86.264C79.5073 86.264 80.0833 86.104 80.6113 85.784C81.1553 85.464 81.5873 85.008 81.9073 84.416C82.2433 83.824 82.4113 83.12 82.4113 82.304Z" fill="#09B451"/>
<path d="M14.2958 113.112C13.2505 113.112 12.2905 112.867 11.4158 112.376C10.5411 111.885 9.84781 111.208 9.33581 110.344C8.82381 109.469 8.56781 108.483 8.56781 107.384C8.56781 106.296 8.82381 105.32 9.33581 104.456C9.84781 103.581 10.5411 102.899 11.4158 102.408C12.2905 101.917 13.2505 101.672 14.2958 101.672C15.3518 101.672 16.3118 101.917 17.1758 102.408C18.0505 102.899 18.7385 103.581 19.2398 104.456C19.7518 105.32 20.0078 106.296 20.0078 107.384C20.0078 108.483 19.7518 109.469 19.2398 110.344C18.7385 111.208 18.0505 111.885 17.1758 112.376C16.3011 112.867 15.3411 113.112 14.2958 113.112ZM14.2958 111.112C14.9678 111.112 15.5598 110.963 16.0718 110.664C16.5838 110.355 16.9838 109.917 17.2718 109.352C17.5598 108.787 17.7038 108.131 17.7038 107.384C17.7038 106.637 17.5598 105.987 17.2718 105.432C16.9838 104.867 16.5838 104.435 16.0718 104.136C15.5598 103.837 14.9678 103.688 14.2958 103.688C13.6238 103.688 13.0265 103.837 12.5038 104.136C11.9918 104.435 11.5918 104.867 11.3038 105.432C11.0158 105.987 10.8718 106.637 10.8718 107.384C10.8718 108.131 11.0158 108.787 11.3038 109.352C11.5918 109.917 11.9918 110.355 12.5038 110.664C13.0265 110.963 13.6238 111.112 14.2958 111.112ZM23.9143 105.416C24.2023 105.011 24.597 104.675 25.0983 104.408C25.6103 104.131 26.1916 103.992 26.8423 103.992C27.5996 103.992 28.2823 104.179 28.8903 104.552C29.509 104.925 29.9943 105.459 30.3463 106.152C30.709 106.835 30.8903 107.629 30.8903 108.536C30.8903 109.443 30.709 110.248 30.3463 110.952C29.9943 111.645 29.509 112.184 28.8903 112.568C28.2823 112.952 27.5996 113.144 26.8423 113.144C26.1916 113.144 25.6156 113.011 25.1143 112.744C24.6236 112.477 24.2236 112.141 23.9143 111.736V117.224H21.6743V104.136H23.9143V105.416ZM28.6023 108.536C28.6023 108.003 28.4903 107.544 28.2663 107.16C28.053 106.765 27.765 106.467 27.4023 106.264C27.0503 106.061 26.6663 105.96 26.2503 105.96C25.845 105.96 25.461 106.067 25.0983 106.28C24.7463 106.483 24.4583 106.781 24.2343 107.176C24.021 107.571 23.9143 108.035 23.9143 108.568C23.9143 109.101 24.021 109.565 24.2343 109.96C24.4583 110.355 24.7463 110.659 25.0983 110.872C25.461 111.075 25.845 111.176 26.2503 111.176C26.6663 111.176 27.0503 111.069 27.4023 110.856C27.765 110.643 28.053 110.339 28.2663 109.944C28.4903 109.549 28.6023 109.08 28.6023 108.536ZM34.7581 105.416C35.0461 105.011 35.4407 104.675 35.9421 104.408C36.4541 104.131 37.0354 103.992 37.6861 103.992C38.4434 103.992 39.1261 104.179 39.7341 104.552C40.3527 104.925 40.8381 105.459 41.1901 106.152C41.5527 106.835 41.7341 107.629 41.7341 108.536C41.7341 109.443 41.5527 110.248 41.1901 110.952C40.8381 111.645 40.3527 112.184 39.7341 112.568C39.1261 112.952 38.4434 113.144 37.6861 113.144C37.0354 113.144 36.4594 113.011 35.9581 112.744C35.4674 112.477 35.0674 112.141 34.7581 111.736V117.224H32.5181V104.136H34.7581V105.416ZM39.4461 108.536C39.4461 108.003 39.3341 107.544 39.1101 107.16C38.8967 106.765 38.6087 106.467 38.2461 106.264C37.8941 106.061 37.5101 105.96 37.0941 105.96C36.6887 105.96 36.3047 106.067 35.9421 106.28C35.5901 106.483 35.3021 106.781 35.0781 107.176C34.8647 107.571 34.7581 108.035 34.7581 108.568C34.7581 109.101 34.8647 109.565 35.0781 109.96C35.3021 110.355 35.5901 110.659 35.9421 110.872C36.3047 111.075 36.6887 111.176 37.0941 111.176C37.5101 111.176 37.8941 111.069 38.2461 110.856C38.6087 110.643 38.8967 110.339 39.1101 109.944C39.3341 109.549 39.4461 109.08 39.4461 108.536ZM47.2978 113.144C46.4445 113.144 45.6765 112.957 44.9938 112.584C44.3111 112.2 43.7725 111.661 43.3778 110.968C42.9938 110.275 42.8018 109.475 42.8018 108.568C42.8018 107.661 42.9991 106.861 43.3938 106.168C43.7991 105.475 44.3485 104.941 45.0418 104.568C45.7351 104.184 46.5085 103.992 47.3618 103.992C48.2151 103.992 48.9885 104.184 49.6818 104.568C50.3751 104.941 50.9191 105.475 51.3138 106.168C51.7191 106.861 51.9218 107.661 51.9218 108.568C51.9218 109.475 51.7138 110.275 51.2978 110.968C50.8925 111.661 50.3378 112.2 49.6338 112.584C48.9405 112.957 48.1618 113.144 47.2978 113.144ZM47.2978 111.192C47.7031 111.192 48.0818 111.096 48.4338 110.904C48.7965 110.701 49.0845 110.403 49.2978 110.008C49.5111 109.613 49.6178 109.133 49.6178 108.568C49.6178 107.725 49.3938 107.08 48.9458 106.632C48.5085 106.173 47.9698 105.944 47.3298 105.944C46.6898 105.944 46.1511 106.173 45.7138 106.632C45.2871 107.08 45.0738 107.725 45.0738 108.568C45.0738 109.411 45.2818 110.061 45.6978 110.52C46.1245 110.968 46.6578 111.192 47.2978 111.192ZM55.8049 105.512C56.0929 105.043 56.4663 104.675 56.9249 104.408C57.3943 104.141 57.9276 104.008 58.5249 104.008V106.36H57.9329C57.2289 106.36 56.6956 106.525 56.3329 106.856C55.9809 107.187 55.8049 107.763 55.8049 108.584V113H53.5649V104.136H55.8049V105.512ZM62.6417 105.976V110.264C62.6417 110.563 62.711 110.781 62.8497 110.92C62.999 111.048 63.2444 111.112 63.5857 111.112H64.6257V113H63.2177C61.3297 113 60.3857 112.083 60.3857 110.248V105.976H59.3297V104.136H60.3857V101.944H62.6417V104.136H64.6257V105.976H62.6417ZM74.6048 104.136V113H72.3488V111.88C72.0608 112.264 71.6821 112.568 71.2128 112.792C70.7541 113.005 70.2528 113.112 69.7088 113.112C69.0155 113.112 68.4021 112.968 67.8688 112.68C67.3355 112.381 66.9141 111.949 66.6048 111.384C66.3061 110.808 66.1568 110.125 66.1568 109.336V104.136H68.3968V109.016C68.3968 109.72 68.5728 110.264 68.9248 110.648C69.2768 111.021 69.7568 111.208 70.3648 111.208C70.9835 111.208 71.4688 111.021 71.8208 110.648C72.1728 110.264 72.3488 109.72 72.3488 109.016V104.136H74.6048ZM81.7269 104.008C82.7829 104.008 83.6363 104.344 84.2869 105.016C84.9376 105.677 85.2629 106.605 85.2629 107.8V113H83.0229V108.104C83.0229 107.4 82.8469 106.861 82.4949 106.488C82.1429 106.104 81.6629 105.912 81.0549 105.912C80.4363 105.912 79.9456 106.104 79.5829 106.488C79.2309 106.861 79.0549 107.4 79.0549 108.104V113H76.8149V104.136H79.0549V105.24C79.3536 104.856 79.7323 104.557 80.1909 104.344C80.6603 104.12 81.1723 104.008 81.7269 104.008ZM88.5291 103.08C88.1344 103.08 87.8037 102.957 87.5371 102.712C87.2811 102.456 87.1531 102.141 87.1531 101.768C87.1531 101.395 87.2811 101.085 87.5371 100.84C87.8037 100.584 88.1344 100.456 88.5291 100.456C88.9237 100.456 89.2491 100.584 89.5051 100.84C89.7717 101.085 89.9051 101.395 89.9051 101.768C89.9051 102.141 89.7717 102.456 89.5051 102.712C89.2491 102.957 88.9237 103.08 88.5291 103.08ZM89.6331 104.136V113H87.3931V104.136H89.6331ZM94.4542 105.976V110.264C94.4542 110.563 94.5235 110.781 94.6622 110.92C94.8115 111.048 95.0569 111.112 95.3982 111.112H96.4382V113H95.0302C93.1422 113 92.1982 112.083 92.1982 110.248V105.976H91.1422V104.136H92.1982V101.944H94.4542V104.136H96.4382V105.976H94.4542ZM99.1853 103.08C98.7906 103.08 98.46 102.957 98.1933 102.712C97.9373 102.456 97.8093 102.141 97.8093 101.768C97.8093 101.395 97.9373 101.085 98.1933 100.84C98.46 100.584 98.7906 100.456 99.1853 100.456C99.58 100.456 99.9053 100.584 100.161 100.84C100.428 101.085 100.561 101.395 100.561 101.768C100.561 102.141 100.428 102.456 100.161 102.712C99.9053 102.957 99.58 103.08 99.1853 103.08ZM100.289 104.136V113H98.0493V104.136H100.289ZM110.742 108.376C110.742 108.696 110.721 108.984 110.678 109.24H104.198C104.252 109.88 104.476 110.381 104.87 110.744C105.265 111.107 105.75 111.288 106.326 111.288C107.158 111.288 107.75 110.931 108.102 110.216H110.518C110.262 111.069 109.772 111.773 109.046 112.328C108.321 112.872 107.43 113.144 106.374 113.144C105.521 113.144 104.753 112.957 104.07 112.584C103.398 112.2 102.87 111.661 102.486 110.968C102.113 110.275 101.926 109.475 101.926 108.568C101.926 107.651 102.113 106.845 102.486 106.152C102.86 105.459 103.382 104.925 104.054 104.552C104.726 104.179 105.5 103.992 106.374 103.992C107.217 103.992 107.969 104.173 108.63 104.536C109.302 104.899 109.82 105.416 110.182 106.088C110.556 106.749 110.742 107.512 110.742 108.376ZM108.422 107.736C108.412 107.16 108.204 106.701 107.798 106.36C107.393 106.008 106.897 105.832 106.31 105.832C105.756 105.832 105.286 106.003 104.902 106.344C104.529 106.675 104.3 107.139 104.214 107.736H108.422ZM115.769 113.144C115.044 113.144 114.393 113.016 113.817 112.76C113.241 112.493 112.783 112.136 112.441 111.688C112.111 111.24 111.929 110.744 111.897 110.2H114.153C114.196 110.541 114.361 110.824 114.649 111.048C114.948 111.272 115.316 111.384 115.753 111.384C116.18 111.384 116.511 111.299 116.745 111.128C116.991 110.957 117.113 110.739 117.113 110.472C117.113 110.184 116.964 109.971 116.665 109.832C116.377 109.683 115.913 109.523 115.273 109.352C114.612 109.192 114.068 109.027 113.641 108.856C113.225 108.685 112.863 108.424 112.553 108.072C112.255 107.72 112.105 107.245 112.105 106.648C112.105 106.157 112.244 105.709 112.521 105.304C112.809 104.899 113.215 104.579 113.737 104.344C114.271 104.109 114.895 103.992 115.609 103.992C116.665 103.992 117.508 104.259 118.137 104.792C118.767 105.315 119.113 106.024 119.177 106.92H117.033C117.001 106.568 116.852 106.291 116.585 106.088C116.329 105.875 115.983 105.768 115.545 105.768C115.14 105.768 114.825 105.843 114.601 105.992C114.388 106.141 114.281 106.349 114.281 106.616C114.281 106.915 114.431 107.144 114.729 107.304C115.028 107.453 115.492 107.608 116.121 107.768C116.761 107.928 117.289 108.093 117.705 108.264C118.121 108.435 118.479 108.701 118.777 109.064C119.087 109.416 119.247 109.885 119.257 110.472C119.257 110.984 119.113 111.443 118.825 111.848C118.548 112.253 118.143 112.573 117.609 112.808C117.087 113.032 116.473 113.144 115.769 113.144Z" fill="#333333"/>
<path d="M43 95.0001C54.6667 93.8335 78.8 92.2001 82 95.0001" stroke="#09B451" stroke-width="2" stroke-linecap="round"/>
<rect x="44" y="12" width="41" height="41" rx="20.5" fill="#E1FFEE"/>
<path d="M59.2285 28.4001V24.8858C59.2285 24.2645 59.4753 23.6685 59.9147 23.2292C60.3541 22.7898 60.95 22.543 61.5713 22.543H66.2571C66.8784 22.543 67.4743 22.7898 67.9137 23.2292C68.3531 23.6685 68.5999 24.2645 68.5999 24.8858V28.4001H72.1142C72.7356 28.4001 73.3315 28.6469 73.7708 29.0863C74.2102 29.5257 74.4571 30.1216 74.4571 30.743V41.2858C74.4571 41.9072 74.2102 42.5031 73.7708 42.9425C73.3315 43.3818 72.7356 43.6287 72.1142 43.6287H55.7142C55.0928 43.6287 54.4969 43.3818 54.0575 42.9425C53.6182 42.5031 53.3713 41.9072 53.3713 41.2858V30.743C53.3713 30.1216 53.6182 29.5257 54.0575 29.0863C54.4969 28.6469 55.0928 28.4001 55.7142 28.4001H59.2285ZM55.7142 30.743V41.2858H72.1142V30.743H68.5976V34.2573H66.2571V30.743H61.5713V34.2573H59.2285V30.743H55.7142ZM61.5713 28.4001H66.2571V24.8858H61.5713V28.4001Z" fill="#09B451"/>
</svg>
