<svg width="114" height="128" viewBox="0 0 114 128" fill="none" xmlns="http://www.w3.org/2000/svg">
<path d="M0.944092 6.27317C0.944092 2.94734 3.64021 0.251221 6.96603 0.251221H107.722C111.048 0.251221 113.744 2.94734 113.744 6.27316V112.861C113.744 121.176 107.004 127.916 98.6892 127.916H6.96603C3.6402 127.916 0.944092 125.22 0.944092 121.894V6.27317Z" fill="white"/>
<path d="M47.1091 63.6913V73.9745C47.1091 75.4016 46.6964 76.5138 45.8709 77.3113C45.0455 78.0948 43.9402 78.4865 42.5551 78.4865C41.1561 78.4865 40.0228 78.0808 39.1554 77.2693C38.302 76.4579 37.8753 75.3246 37.8753 73.8696H40.8133C40.8273 74.4992 40.9742 74.9888 41.254 75.3386C41.5478 75.6884 41.9675 75.8632 42.5132 75.8632C43.0448 75.8632 43.4505 75.6954 43.7304 75.3596C44.0102 75.0238 44.1501 74.5621 44.1501 73.9745V63.6913H47.1091ZM55.699 78.5285C54.5797 78.5285 53.5724 78.2836 52.677 77.794C51.7816 77.2903 51.075 76.5838 50.5574 75.6744C50.0537 74.765 49.8019 73.7157 49.8019 72.5265C49.8019 71.3373 50.0607 70.288 50.5784 69.3786C51.11 68.4692 51.8305 67.7696 52.7399 67.28C53.6493 66.7763 54.6637 66.5245 55.7829 66.5245C56.9022 66.5245 57.9165 66.7763 58.8259 67.28C59.7353 67.7696 60.4488 68.4692 60.9665 69.3786C61.4981 70.288 61.7639 71.3373 61.7639 72.5265C61.7639 73.7157 61.4911 74.765 60.9455 75.6744C60.4138 76.5838 59.6863 77.2903 58.7629 77.794C57.8535 78.2836 56.8322 78.5285 55.699 78.5285ZM55.699 75.9682C56.2306 75.9682 56.7273 75.8423 57.189 75.5904C57.6647 75.3246 58.0424 74.9329 58.3222 74.4152C58.602 73.8976 58.7419 73.268 58.7419 72.5265C58.7419 71.4212 58.4481 70.5748 57.8605 69.9872C57.2869 69.3856 56.5804 69.0848 55.7409 69.0848C54.9015 69.0848 54.195 69.3856 53.6213 69.9872C53.0617 70.5748 52.7819 71.4212 52.7819 72.5265C52.7819 73.6317 53.0547 74.4852 53.6004 75.0868C54.16 75.6744 54.8595 75.9682 55.699 75.9682ZM66.8571 68.4132C67.2349 67.8536 67.7526 67.3989 68.4101 67.0491C69.0817 66.6993 69.8442 66.5245 70.6976 66.5245C71.6909 66.5245 72.5863 66.7693 73.3838 67.259C74.1953 67.7486 74.8318 68.4482 75.2935 69.3576C75.7692 70.253 76.0071 71.2953 76.0071 72.4845C76.0071 73.6737 75.7692 74.73 75.2935 75.6534C74.8318 76.5628 74.1953 77.2693 73.3838 77.773C72.5863 78.2766 71.6909 78.5285 70.6976 78.5285C69.8302 78.5285 69.0677 78.3606 68.4101 78.0248C67.7665 77.675 67.2489 77.2273 66.8571 76.6817V78.3396H63.9191V62.8099H66.8571V68.4132ZM73.0061 72.4845C73.0061 71.785 72.8592 71.1834 72.5654 70.6797C72.2855 70.162 71.9078 69.7703 71.4321 69.5045C70.9704 69.2387 70.4667 69.1057 69.9211 69.1057C69.3895 69.1057 68.8858 69.2456 68.4101 69.5255C67.9484 69.7913 67.5707 70.183 67.2769 70.7007C66.9971 71.2183 66.8571 71.8269 66.8571 72.5265C66.8571 73.226 66.9971 73.8346 67.2769 74.3523C67.5707 74.8699 67.9484 75.2686 68.4101 75.5485C68.8858 75.8143 69.3895 75.9472 69.9211 75.9472C70.4667 75.9472 70.9704 75.8073 71.4321 75.5275C71.9078 75.2477 72.2855 74.8489 72.5654 74.3313C72.8592 73.8136 73.0061 73.198 73.0061 72.4845Z" fill="#09B451"/>
<path d="M13.4446 99.4375C12.5306 99.4375 11.6911 99.223 10.9263 98.794C10.1615 98.3649 9.55522 97.7726 9.10751 97.0171C8.65981 96.2523 8.43596 95.3896 8.43596 94.4289C8.43596 93.4775 8.65981 92.6241 9.10751 91.8686C9.55522 91.1037 10.1615 90.5068 10.9263 90.0778C11.6911 89.6487 12.5306 89.4342 13.4446 89.4342C14.368 89.4342 15.2075 89.6487 15.963 90.0778C16.7278 90.5068 17.3294 91.1037 17.7678 91.8686C18.2155 92.6241 18.4393 93.4775 18.4393 94.4289C18.4393 95.3896 18.2155 96.2523 17.7678 97.0171C17.3294 97.7726 16.7278 98.3649 15.963 98.794C15.1981 99.223 14.3587 99.4375 13.4446 99.4375ZM13.4446 97.6887C14.0322 97.6887 14.5499 97.5581 14.9976 97.297C15.4453 97.0265 15.7951 96.6441 16.0469 96.1497C16.2987 95.6554 16.4246 95.0818 16.4246 94.4289C16.4246 93.776 16.2987 93.207 16.0469 92.722C15.7951 92.2277 15.4453 91.8499 14.9976 91.5888C14.5499 91.3276 14.0322 91.197 13.4446 91.197C12.857 91.197 12.3347 91.3276 11.8777 91.5888C11.43 91.8499 11.0802 92.2277 10.8284 92.722C10.5765 93.207 10.4506 93.776 10.4506 94.4289C10.4506 95.0818 10.5765 95.6554 10.8284 96.1497C11.0802 96.6441 11.43 97.0265 11.8777 97.297C12.3347 97.5581 12.857 97.6887 13.4446 97.6887ZM21.8552 92.708C22.1071 92.3536 22.4522 92.0598 22.8905 91.8266C23.3382 91.5841 23.8466 91.4628 24.4155 91.4628C25.0777 91.4628 25.6747 91.6261 26.2063 91.9525C26.7473 92.279 27.1717 92.7453 27.4795 93.3516C27.7966 93.9485 27.9552 94.6434 27.9552 95.4362C27.9552 96.229 27.7966 96.9332 27.4795 97.5488C27.1717 98.1551 26.7473 98.6261 26.2063 98.9619C25.6747 99.2976 25.0777 99.4655 24.4155 99.4655C23.8466 99.4655 23.3429 99.3489 22.9045 99.1157C22.4755 98.8826 22.1257 98.5888 21.8552 98.2343V103.033H19.8965V91.5888H21.8552V92.708ZM25.9545 95.4362C25.9545 94.9698 25.8566 94.5688 25.6607 94.233C25.4742 93.8879 25.2223 93.6267 24.9052 93.4495C24.5974 93.2723 24.2616 93.1837 23.8979 93.1837C23.5434 93.1837 23.2077 93.277 22.8905 93.4635C22.5827 93.6407 22.3309 93.9019 22.135 94.247C21.9485 94.5921 21.8552 94.9978 21.8552 95.4642C21.8552 95.9305 21.9485 96.3363 22.135 96.6814C22.3309 97.0265 22.5827 97.2923 22.8905 97.4788C23.2077 97.6561 23.5434 97.7447 23.8979 97.7447C24.2616 97.7447 24.5974 97.6514 24.9052 97.4648C25.2223 97.2783 25.4742 97.0125 25.6607 96.6674C25.8566 96.3223 25.9545 95.9119 25.9545 95.4362ZM31.3372 92.708C31.589 92.3536 31.9341 92.0598 32.3725 91.8266C32.8202 91.5841 33.3285 91.4628 33.8975 91.4628C34.5597 91.4628 35.1567 91.6261 35.6883 91.9525C36.2293 92.279 36.6537 92.7453 36.9615 93.3516C37.2786 93.9485 37.4371 94.6434 37.4371 95.4362C37.4371 96.229 37.2786 96.9332 36.9615 97.5488C36.6537 98.1551 36.2293 98.6261 35.6883 98.9619C35.1567 99.2976 34.5597 99.4655 33.8975 99.4655C33.3285 99.4655 32.8249 99.3489 32.3865 99.1157C31.9575 98.8826 31.6077 98.5888 31.3372 98.2343V103.033H29.3785V91.5888H31.3372V92.708ZM35.4365 95.4362C35.4365 94.9698 35.3385 94.5688 35.1427 94.233C34.9561 93.8879 34.7043 93.6267 34.3872 93.4495C34.0794 93.2723 33.7436 93.1837 33.3798 93.1837C33.0254 93.1837 32.6896 93.277 32.3725 93.4635C32.0647 93.6407 31.8129 93.9019 31.617 94.247C31.4305 94.5921 31.3372 94.9978 31.3372 95.4642C31.3372 95.9305 31.4305 96.3363 31.617 96.6814C31.8129 97.0265 32.0647 97.2923 32.3725 97.4788C32.6896 97.6561 33.0254 97.7447 33.3798 97.7447C33.7436 97.7447 34.0794 97.6514 34.3872 97.4648C34.7043 97.2783 34.9561 97.0125 35.1427 96.6674C35.3385 96.3223 35.4365 95.9119 35.4365 95.4362ZM42.3022 99.4655C41.556 99.4655 40.8845 99.3023 40.2875 98.9758C39.6906 98.6401 39.2196 98.169 38.8745 97.5628C38.5387 96.9565 38.3708 96.257 38.3708 95.4642C38.3708 94.6714 38.5434 93.9718 38.8885 93.3656C39.2429 92.7593 39.7232 92.293 40.3295 91.9665C40.9358 91.6307 41.612 91.4628 42.3582 91.4628C43.1043 91.4628 43.7805 91.6307 44.3868 91.9665C44.9931 92.293 45.4688 92.7593 45.8139 93.3656C46.1683 93.9718 46.3455 94.6714 46.3455 95.4642C46.3455 96.257 46.1636 96.9565 45.7999 97.5628C45.4454 98.169 44.9604 98.6401 44.3448 98.9758C43.7386 99.3023 43.0577 99.4655 42.3022 99.4655ZM42.3022 97.7587C42.6566 97.7587 42.9877 97.6747 43.2955 97.5068C43.6127 97.3296 43.8645 97.0684 44.051 96.7233C44.2376 96.3782 44.3308 95.9585 44.3308 95.4642C44.3308 94.7273 44.135 94.163 43.7432 93.7713C43.3608 93.3702 42.8898 93.1697 42.3302 93.1697C41.7705 93.1697 41.2995 93.3702 40.9171 93.7713C40.544 94.163 40.3575 94.7273 40.3575 95.4642C40.3575 96.201 40.5394 96.77 40.9031 97.171C41.2762 97.5628 41.7426 97.7587 42.3022 97.7587ZM49.741 92.792C49.9928 92.3816 50.3193 92.0598 50.7203 91.8266C51.1307 91.5934 51.5971 91.4768 52.1194 91.4768V93.5335H51.6017C50.9862 93.5335 50.5198 93.678 50.2027 93.9672C49.8949 94.2563 49.741 94.76 49.741 95.4782V99.3396H47.7823V91.5888H49.741V92.792ZM55.7192 93.1977V96.9472C55.7192 97.2083 55.7798 97.3996 55.901 97.5208C56.0316 97.6327 56.2461 97.6887 56.5446 97.6887H57.454V99.3396H56.2228C54.5719 99.3396 53.7465 98.5375 53.7465 96.9332V93.1977H52.8231V91.5888H53.7465V89.672H55.7192V91.5888H57.454V93.1977H55.7192ZM66.1799 91.5888V99.3396H64.2073V98.3603C63.9554 98.696 63.6243 98.9619 63.2139 99.1577C62.8128 99.3443 62.3745 99.4375 61.8988 99.4375C61.2925 99.4375 60.7562 99.3116 60.2899 99.0598C59.8235 98.7986 59.4551 98.4209 59.1846 97.9265C58.9234 97.4229 58.7929 96.8259 58.7929 96.1357V91.5888H60.7516V95.8559C60.7516 96.4715 60.9054 96.9472 61.2132 97.283C61.521 97.6094 61.9408 97.7726 62.4724 97.7726C63.0134 97.7726 63.4378 97.6094 63.7456 97.283C64.0534 96.9472 64.2073 96.4715 64.2073 95.8559V91.5888H66.1799ZM72.4077 91.4768C73.331 91.4768 74.0772 91.7706 74.6462 92.3582C75.2151 92.9365 75.4996 93.748 75.4996 94.7926V99.3396H73.5409V95.0584C73.5409 94.4429 73.387 93.9718 73.0792 93.6454C72.7714 93.3096 72.3517 93.1417 71.8201 93.1417C71.2791 93.1417 70.85 93.3096 70.5329 93.6454C70.2251 93.9718 70.0712 94.4429 70.0712 95.0584V99.3396H68.1125V91.5888H70.0712V92.5541C70.3324 92.2183 70.6635 91.9572 71.0646 91.7706C71.4749 91.5748 71.9227 91.4768 72.4077 91.4768ZM78.3556 90.6654C78.0105 90.6654 77.7213 90.5581 77.4881 90.3436C77.2643 90.1197 77.1524 89.8446 77.1524 89.5181C77.1524 89.1917 77.2643 88.9212 77.4881 88.7067C77.7213 88.4828 78.0105 88.3709 78.3556 88.3709C78.7007 88.3709 78.9851 88.4828 79.209 88.7067C79.4422 88.9212 79.5588 89.1917 79.5588 89.5181C79.5588 89.8446 79.4422 90.1197 79.209 90.3436C78.9851 90.5581 78.7007 90.6654 78.3556 90.6654ZM79.3209 91.5888V99.3396H77.3622V91.5888H79.3209ZM83.5366 93.1977V96.9472C83.5366 97.2083 83.5972 97.3996 83.7185 97.5208C83.8491 97.6327 84.0636 97.6887 84.362 97.6887H85.2714V99.3396H84.0403C82.3894 99.3396 81.5639 98.5375 81.5639 96.9332V93.1977H80.6405V91.5888H81.5639V89.672H83.5366V91.5888H85.2714V93.1977H83.5366ZM87.6736 90.6654C87.3285 90.6654 87.0393 90.5581 86.8062 90.3436C86.5823 90.1197 86.4704 89.8446 86.4704 89.5181C86.4704 89.1917 86.5823 88.9212 86.8062 88.7067C87.0393 88.4828 87.3285 88.3709 87.6736 88.3709C88.0187 88.3709 88.3032 88.4828 88.527 88.7067C88.7602 88.9212 88.8768 89.1917 88.8768 89.5181C88.8768 89.8446 88.7602 90.1197 88.527 90.3436C88.3032 90.5581 88.0187 90.6654 87.6736 90.6654ZM88.6389 91.5888V99.3396H86.6802V91.5888H88.6389ZM97.7793 95.2963C97.7793 95.5761 97.7607 95.8279 97.7234 96.0518H92.0572C92.1038 96.6114 92.2997 97.0498 92.6448 97.3669C92.9899 97.684 93.4142 97.8426 93.9179 97.8426C94.6454 97.8426 95.1631 97.5301 95.4709 96.9052H97.5835C97.3596 97.6514 96.9306 98.267 96.2963 98.752C95.6621 99.2277 94.8833 99.4655 93.9599 99.4655C93.2137 99.4655 92.5422 99.3023 91.9452 98.9758C91.3576 98.6401 90.8959 98.169 90.5601 97.5628C90.2337 96.9565 90.0705 96.257 90.0705 95.4642C90.0705 94.662 90.2337 93.9578 90.5601 93.3516C90.8866 92.7453 91.3436 92.279 91.9312 91.9525C92.5188 91.6261 93.1951 91.4628 93.9599 91.4628C94.6967 91.4628 95.3543 91.6214 95.9326 91.9385C96.5202 92.2556 96.9726 92.708 97.2897 93.2956C97.6161 93.8739 97.7793 94.5408 97.7793 95.2963ZM95.7507 94.7367C95.7414 94.233 95.5595 93.8319 95.2051 93.5335C94.8506 93.2257 94.4169 93.0718 93.9039 93.0718C93.4189 93.0718 93.0085 93.221 92.6727 93.5195C92.3463 93.8086 92.1458 94.2143 92.0711 94.7367H95.7507ZM102.175 99.4655C101.541 99.4655 100.972 99.3536 100.468 99.1297C99.9645 98.8966 99.5635 98.5841 99.265 98.1924C98.9758 97.8006 98.8173 97.3669 98.7893 96.8912H100.762C100.799 97.1897 100.944 97.4369 101.196 97.6327C101.457 97.8286 101.779 97.9265 102.161 97.9265C102.534 97.9265 102.823 97.8519 103.028 97.7027C103.243 97.5535 103.35 97.3622 103.35 97.1291C103.35 96.8772 103.22 96.6907 102.959 96.5694C102.707 96.4389 102.301 96.299 101.741 96.1497C101.163 96.0098 100.687 95.8652 100.314 95.716C99.9505 95.5668 99.6334 95.3383 99.3629 95.0305C99.1018 94.7227 98.9712 94.3076 98.9712 93.7853C98.9712 93.3562 99.0924 92.9645 99.3349 92.6101C99.5868 92.2556 99.9412 91.9758 100.398 91.7706C100.865 91.5654 101.41 91.4628 102.035 91.4628C102.959 91.4628 103.695 91.696 104.246 92.1624C104.796 92.6194 105.099 93.2397 105.155 94.0231H103.28C103.252 93.7153 103.122 93.4728 102.889 93.2956C102.665 93.1091 102.362 93.0158 101.979 93.0158C101.625 93.0158 101.35 93.0811 101.154 93.2117C100.967 93.3423 100.874 93.5241 100.874 93.7573C100.874 94.0185 101.004 94.219 101.266 94.3589C101.527 94.4895 101.933 94.6247 102.483 94.7646C103.042 94.9045 103.504 95.0491 103.868 95.1984C104.232 95.3476 104.544 95.5808 104.805 95.8979C105.076 96.2057 105.216 96.6161 105.225 97.1291C105.225 97.5768 105.099 97.9778 104.847 98.3323C104.605 98.6867 104.25 98.9665 103.784 99.1717C103.327 99.3676 102.791 99.4655 102.175 99.4655Z" fill="#333333"/>
<g filter="url(#filter0_d_1_1983)">
<path d="M38.5442 83.3209C48.7457 82.3007 69.8484 80.8725 72.6465 83.3209" stroke="#09B451" stroke-width="1.74884" stroke-linecap="round"/>
</g>
<rect x="39.4185" y="10.7441" width="35.8512" height="35.8512" rx="17.9256" fill="#E1FFEE"/>
<path d="M52.7346 25.0847V22.0118C52.7346 21.4684 52.9505 20.9474 53.3347 20.5632C53.7189 20.179 54.2399 19.9631 54.7833 19.9631H58.8805C59.4239 19.9631 59.945 20.179 60.3292 20.5632C60.7133 20.9474 60.9292 21.4684 60.9292 22.0118V25.0847H64.0021C64.5455 25.0847 65.0666 25.3006 65.4507 25.6848C65.8349 26.069 66.0508 26.59 66.0508 27.1334V36.3522C66.0508 36.8956 65.8349 37.4166 65.4507 37.8008C65.0666 38.185 64.5455 38.4009 64.0021 38.4009H49.6617C49.1183 38.4009 48.5973 38.185 48.2131 37.8008C47.8289 37.4166 47.613 36.8956 47.613 36.3522V27.1334C47.613 26.59 47.8289 26.069 48.2131 25.6848C48.5973 25.3006 49.1183 25.0847 49.6617 25.0847H52.7346ZM49.6617 27.1334V36.3522H64.0021V27.1334H60.9271V30.2063H58.8805V27.1334H54.7833V30.2063H52.7346V27.1334H49.6617ZM54.7833 25.0847H58.8805V22.0118H54.7833V25.0847Z" fill="#09B451"/>
<defs>
<filter id="filter0_d_1_1983" x="33.6697" y="81.0945" width="43.8513" height="11.1008" filterUnits="userSpaceOnUse" color-interpolation-filters="sRGB">
<feFlood flood-opacity="0" result="BackgroundImageFix"/>
<feColorMatrix in="SourceAlpha" type="matrix" values="0 0 0 0 0 0 0 0 0 0 0 0 0 0 0 0 0 0 127 0" result="hardAlpha"/>
<feOffset dy="4"/>
<feGaussianBlur stdDeviation="2"/>
<feComposite in2="hardAlpha" operator="out"/>
<feColorMatrix type="matrix" values="0 0 0 0 0 0 0 0 0 0 0 0 0 0 0 0 0 0 0.25 0"/>
<feBlend mode="normal" in2="BackgroundImageFix" result="effect1_dropShadow_1_1983"/>
<feBlend mode="normal" in="SourceGraphic" in2="effect1_dropShadow_1_1983" result="shape"/>
</filter>
</defs>
</svg>
