<svg width="30" height="31" viewBox="0 0 30 31" fill="none" xmlns="http://www.w3.org/2000/svg">
<rect y="0.92749" width="29.7414" height="29.7414" rx="14.8707" fill="#DDFFFF"/>
<path d="M13.0862 6.58789C12.2974 6.58789 11.5409 6.90124 10.9831 7.459C10.4254 8.01675 10.112 8.77324 10.112 9.56203C10.112 10.3508 10.4254 11.1073 10.9831 11.6651C11.5409 12.2228 12.2974 12.5362 13.0862 12.5362C13.8749 12.5362 14.6314 12.2228 15.1892 11.6651C15.7469 11.1073 16.0603 10.3508 16.0603 9.56203C16.0603 8.77324 15.7469 8.01675 15.1892 7.459C14.6314 6.90124 13.8749 6.58789 13.0862 6.58789ZM11.3017 9.56203C11.3017 9.08875 11.4897 8.63486 11.8243 8.30021C12.159 7.96555 12.6129 7.77755 13.0862 7.77755C13.5594 7.77755 14.0133 7.96555 14.348 8.30021C14.6826 8.63486 14.8706 9.08875 14.8706 9.56203C14.8706 10.0353 14.6826 10.4892 14.348 10.8238C14.0133 11.1585 13.5594 11.3465 13.0862 11.3465C12.6129 11.3465 12.159 11.1585 11.8243 10.8238C11.4897 10.4892 11.3017 10.0353 11.3017 9.56203ZM17.7901 9.6917C17.6228 9.60646 17.4377 9.56203 17.2499 9.56203V8.37237C17.6256 8.3724 17.9959 8.46137 18.3306 8.632C18.6652 8.80263 18.9547 9.05008 19.1754 9.35409C19.396 9.6581 19.5416 10.01 19.6001 10.3811C19.6586 10.7522 19.6284 11.1318 19.512 11.489C19.3956 11.8461 19.1963 12.1706 18.9304 12.436C18.6644 12.7013 18.3395 12.8999 17.9821 13.0155C17.6247 13.1311 17.2449 13.1605 16.874 13.1011C16.5031 13.0418 16.1515 12.8955 15.8479 12.6742L16.5486 11.7129C16.6813 11.8095 16.8325 11.8775 16.9927 11.9128C17.153 11.9481 17.3188 11.9499 17.4797 11.9181C17.6407 11.8862 17.7933 11.8214 17.928 11.7277C18.0627 11.634 18.1765 11.5135 18.2624 11.3737C18.3483 11.2338 18.4043 11.0778 18.427 10.9153C18.4496 10.7528 18.4384 10.5873 18.394 10.4294C18.3497 10.2714 18.2731 10.1243 18.1692 9.99739C18.0652 9.87044 17.9362 9.76636 17.7901 9.6917ZM19.6281 17.2948C19.6279 16.6641 19.3773 16.0593 18.9314 15.6134C18.4854 15.1674 17.8806 14.9168 17.2499 14.9167V13.7258C18.1964 13.726 19.1041 14.102 19.7734 14.7713C20.4427 15.4406 20.8188 16.3483 20.8189 17.2948H19.6281ZM17.2499 17.2948H16.0603C16.0603 16.506 15.7469 15.7495 15.1892 15.1918C14.6314 14.634 13.8749 14.3206 13.0862 14.3206C12.2974 14.3206 11.5409 14.634 10.9831 15.1918C10.4254 15.7495 10.112 16.506 10.112 17.2948H8.92236C8.92236 16.1905 9.36105 15.1314 10.1419 14.3505C10.9228 13.5697 11.9818 13.131 13.0862 13.131C14.1905 13.131 15.2495 13.5697 16.0304 14.3505C16.8113 15.1314 17.2499 16.1905 17.2499 17.2948Z" fill="#09B451"/>
</svg>
