<svg width="30" height="30" viewBox="0 0 30 30" fill="none" xmlns="http://www.w3.org/2000/svg">
<rect y="0.0222168" width="29.7414" height="29.7414" rx="14.8707" fill="#DDFFFF"/>
<path d="M12.4912 8.65676V6.87227C12.4912 6.55676 12.6166 6.25416 12.8397 6.03106C13.0628 5.80796 13.3654 5.68262 13.6809 5.68262H16.0602C16.3757 5.68262 16.6783 5.80796 16.9014 6.03106C17.1245 6.25416 17.2498 6.55676 17.2498 6.87227V8.65676H19.0343C19.3498 8.65676 19.6524 8.78209 19.8755 9.0052C20.0986 9.2283 20.224 9.53089 20.224 9.84641V15.1999C20.224 15.5154 20.0986 15.818 19.8755 16.0411C19.6524 16.2642 19.3498 16.3895 19.0343 16.3895H10.7067C10.3912 16.3895 10.0886 16.2642 9.86553 16.0411C9.64243 15.818 9.51709 15.5154 9.51709 15.1999V9.84641C9.51709 9.53089 9.64243 9.2283 9.86553 9.0052C10.0886 8.78209 10.3912 8.65676 10.7067 8.65676H12.4912ZM10.7067 9.84641V15.1999H19.0343V9.84641H17.2487V11.6309H16.0602V9.84641H13.6809V11.6309H12.4912V9.84641H10.7067ZM13.6809 8.65676H16.0602V6.87227H13.6809V8.65676Z" fill="#09B451"/>
</svg>
